<svg width="778" height="80" viewBox="0 0 778 80" fill="none" xmlns="http://www.w3.org/2000/svg">
<path fill-rule="evenodd" clip-rule="evenodd" d="M0 0.452403C0 2.2747 9.45359 14.027 13.2495 16.9223C17.6461 20.2757 18.9666 20.499 34.4158 20.499H50.8942V50.1873V79.8756H60.762H70.6284L71.0115 50.5408L71.3932 21.2059L88.6039 20.499C104.494 19.8459 106.109 19.5207 109.649 16.2579C113.64 12.5779 121.581 2.32276 121.581 0.848245C121.581 0.381715 94.2249 0 60.7903 0C27.3556 0 0 0.203587 0 0.452403ZM241.394 0.370387C205.164 0.614962 186.612 1.23135 186.612 2.18986C186.612 2.98579 190.302 7.43197 194.81 12.069L203.008 20.499H241.354H279.702L283.992 16.887C289.367 12.3645 297.276 2.47545 296.648 1.06172C296.388 0.47785 271.525 0.166811 241.394 0.370387ZM520.249 39.9378L520.252 79.8756H560.109H599.967L607.322 72.2825C611.368 68.1049 615.403 63.3336 616.288 61.6795L617.898 58.6697H578.971H540.044V29.8042V0.938717L530.145 0.469359L520.245 0L520.249 39.9378ZM675.762 0.933065C675.762 2.59702 686.841 15.9355 690.145 18.2498C692.858 20.1513 698.486 20.499 726.483 20.499H759.611L764.301 16.9223C768.096 14.027 777.55 2.2747 777.55 0.452403C777.55 0.203587 754.648 0 726.656 0C698.664 0 675.762 0.419882 675.762 0.933065ZM352.018 23.3265V45.9461H393.723H435.428V52.3079V58.6697H404.255C379.102 58.6697 372.28 59.0853 368.919 60.8228C364.855 62.925 353.432 76.0288 353.432 78.5891C353.432 79.3384 374.969 79.8756 405.033 79.8756H456.634V52.3079V24.7402H414.929C378.8 24.7402 373.224 24.4561 373.224 22.6196C373.224 20.7959 377.779 20.499 405.74 20.499H438.255L443.577 15.1778C446.502 12.2528 450.363 7.79952 452.155 5.28167L455.412 0.706864H403.715H352.018V23.3265ZM187.592 33.3413C188.997 35.7404 193.141 40.5118 196.801 43.9443L203.455 50.1873H241.578H279.702L284.261 46.3505C289.008 42.3553 296.883 32.2698 296.883 30.1831C296.883 29.5215 271.718 28.9814 240.96 28.9814H185.039L187.592 33.3413ZM677.175 55.1976V80L687.425 79.5844L697.674 79.1687L698.073 62.5574L698.47 45.9461H726.701H754.93V62.9109V79.8756H765.533H776.136V55.1354V30.3951H726.656H677.175V55.1976ZM186.71 61.6795C187.595 63.3336 191.629 68.1049 195.675 72.2825L203.03 79.8756H240.987H278.944L283.769 76.1957C288.554 72.5454 296.883 62.1786 296.883 59.8714C296.883 59.2097 271.731 58.6697 240.991 58.6697H185.099L186.71 61.6795Z" fill="black"/>
</svg>
